<?xml version="1.0" encoding="UTF-8"?>
<!DOCTYPE svg PUBLIC "-//W3C//DTD SVG 1.1//EN" "http://www.w3.org/Graphics/SVG/1.1/DTD/svg11.dtd">
<!-- Creator: CorelDRAW 2018 (64-Bit Evaluation Version) -->
<svg xmlns="http://www.w3.org/2000/svg" xml:space="preserve" width="64px" height="64px" version="1.1" style="shape-rendering:geometricPrecision; text-rendering:geometricPrecision; image-rendering:optimizeQuality; fill-rule:evenodd; clip-rule:evenodd"
viewBox="0 0 64 64"
 xmlns:xlink="http://www.w3.org/1999/xlink">
 <defs>
  <style type="text/css">
   <![CDATA[
    .fil0 {fill:none}
    .fil3 {fill:#50AF95}
    .fil5 {fill:#A6D6C9}
    .fil4 {fill:white}
    .fil2 {fill:url(#id0)}
    .fil1 {fill:url(#id1)}
   ]]>
  </style>
  <linearGradient id="id0" gradientUnits="userSpaceOnUse" x1="51.593" y1="17.496" x2="42.905" y2="53.26">
   <stop offset="0" style="stop-opacity:1; stop-color:#FE6E98"/>
   <stop offset="1" style="stop-opacity:1; stop-color:#FE8366"/>
  </linearGradient>
  <linearGradient id="id1" gradientUnits="userSpaceOnUse" xlink:href="#id0" x1="16.858" y1="53.81" x2="30.744" y2="9.045">
  </linearGradient>
 </defs>
 <g id="Layer_x0020_1">
  <metadata id="CorelCorpID_0Corel-Layer"/>
  <rect class="fil0" x="-0.001" y="-0.001" width="64.002" height="64.002"/>
  <path class="fil1" d="M32.176 55.723l-8.104 0 -0.053 0c-6.522,0 -12.448,-2.666 -16.741,-6.959 -4.294,-4.294 -6.959,-10.22 -6.959,-16.741 0,-6.522 2.665,-12.449 6.959,-16.742 4.293,-4.294 10.219,-6.959 16.741,-6.959l0.053 0 3.513 0 -0.056 -3.258 9.34 7.416 -9.09 7.217 -0.055 -3.202 -3.652 0 -0.053 0c-4.265,0 -8.146,1.748 -10.963,4.564 -2.816,2.816 -4.564,6.698 -4.564,10.963 0,4.266 1.748,8.147 4.564,10.964 2.817,2.816 6.698,4.564 10.963,4.564l0.053 0 7.81 0 -4.999 3.97 5.293 4.203z"/>
  <path class="fil2" d="M39.928 16.495l-7.111 0 5.055 -4.015 -5.237 -4.158 7.293 0 0.053 0c6.522,0 12.448,2.665 16.741,6.959 4.294,4.293 6.959,10.22 6.959,16.742 0,6.521 -2.665,12.447 -6.959,16.741 -4.293,4.293 -10.219,6.959 -16.741,6.959l-0.053 0 -2.757 0 0.054 3.213 -9.338 -7.416 9.089 -7.217 0.056 3.247 2.896 0 0.053 0c4.265,0 8.146,-1.748 10.963,-4.564 2.816,-2.817 4.564,-6.698 4.564,-10.964 0,-4.265 -1.748,-8.147 -4.564,-10.963 -2.817,-2.816 -6.698,-4.564 -10.963,-4.564l-0.053 0z"/>
  <path class="fil3" d="M37.743 24.96c0.004,0.004 0.007,0.011 0.008,0.014l0.014 2.629 -3.964 0 0.001 1.713c1.087,0.057 2.18,0.156 3.213,0.36 0.712,0.14 2.379,0.529 2.399,1.177 0.019,0.646 -1.686,1.055 -2.38,1.191 -1.046,0.206 -2.132,0.306 -3.223,0.362l-0.007 5.531 -2.78 0 -0.063 0 0 -5.546 -0.078 0.003c-0.54,0.063 -2.574,-0.226 -3.182,-0.351 -3.153,-0.647 -3.199,-1.7 -0.018,-2.359 0.632,-0.131 2.603,-0.401 3.195,-0.358 0.042,-0.026 0.04,-0.01 0.055,-0.066l0.001 -1.657c-0.016,0 -3.914,0.019 -3.928,-0.014 -0.002,-0.006 -0.009,-0.006 -0.014,-0.008l0 -2.621 10.751 0zm-5.472 16.999c0.068,0.019 0.125,0.019 0.193,0 0.095,-0.116 0.227,-0.211 0.333,-0.31 0.058,-0.055 0.091,-0.107 0.149,-0.164 0.183,-0.181 0.3,-0.25 0.504,-0.481 0.098,-0.11 0.238,-0.217 0.352,-0.32l0.671 -0.651c0.11,-0.134 0.837,-0.785 1.012,-0.959 0.144,-0.142 0.137,-0.161 0.337,-0.334 0.21,-0.183 0.198,-0.2 0.327,-0.323 0.122,-0.114 0.23,-0.205 0.353,-0.318 0.063,-0.058 0.09,-0.103 0.15,-0.163 0.175,-0.179 0.336,-0.29 0.517,-0.493 0.094,-0.107 0.226,-0.215 0.337,-0.311 0.119,-0.104 0.223,-0.228 0.337,-0.336 0.113,-0.106 0.241,-0.197 0.337,-0.312 0.179,-0.212 0.33,-0.308 0.508,-0.479l1.856 -1.794c0.112,-0.107 0.233,-0.202 0.338,-0.312l2.699 -2.586c0.184,-0.167 0.119,-0.215 0.011,-0.443 -0.144,-0.304 -0.275,-0.591 -0.426,-0.896 -0.293,-0.594 -0.56,-1.199 -0.851,-1.793 -0.579,-1.183 -1.146,-2.387 -1.705,-3.58 -0.281,-0.597 -0.574,-1.19 -0.853,-1.789 -0.296,-0.637 -0.158,-0.546 -0.782,-0.546l-13.192 0c-0.644,0 -0.51,-0.086 -0.798,0.531l-1.706 3.578c-0.278,0.6 -0.557,1.197 -0.852,1.791l-1.278 2.688c-0.171,0.368 -0.2,0.272 0.333,0.759 0.425,0.387 0.916,0.905 1.344,1.297l2.362 2.253c0.118,0.106 0.223,0.225 0.337,0.334 0.116,0.11 0.236,0.194 0.337,0.313 0.115,0.135 0.216,0.222 0.342,0.331 0.195,0.17 0.194,0.198 0.327,0.322 0.121,0.113 0.235,0.206 0.353,0.319l1.004 0.966c0.076,0.067 0.092,0.092 0.164,0.173 0.052,0.057 0.112,0.109 0.172,0.164 0.111,0.104 0.242,0.197 0.339,0.31 0.121,0.144 0.212,0.22 0.341,0.331 0.197,0.171 0.201,0.209 0.325,0.325 0.121,0.113 0.234,0.204 0.354,0.318 0.117,0.112 0.129,0.155 0.324,0.325l0.68 0.642c0.121,0.109 0.215,0.227 0.336,0.336l1.348 1.287z"/>
  <path class="fil4" d="M33.801 29.518c1.208,0.054 3.349,0.23 4.452,0.733 0.508,0.232 0.69,0.561 0.15,0.877 -1.888,1.106 -10.052,1.132 -12.083,-0.008 -0.578,-0.326 -0.318,-0.651 0.178,-0.876 0.395,-0.18 0.88,-0.298 1.337,-0.39 0.977,-0.197 2.08,-0.294 3.11,-0.335l0 1.925c0.962,0.05 1.884,0.059 2.855,0.001l0.001 -1.927zm-6.809 -1.938l3.964 0 0 1.748 -0.078 -0.002c-0.592,-0.043 -2.563,0.227 -3.195,0.358 -3.181,0.659 -3.135,1.711 0.018,2.359 0.608,0.125 2.642,0.414 3.182,0.351l0.078 -0.003 0 5.546 0.063 0 2.78 0 0.008 -5.531c1.09,-0.056 2.176,-0.156 3.222,-0.362 0.694,-0.136 2.399,-0.545 2.38,-1.191 -0.02,-0.648 -1.687,-1.037 -2.399,-1.177 -1.033,-0.204 -2.126,-0.303 -3.213,-0.36l-0.001 -1.713c0.063,-0.04 0.171,-0.023 0.246,-0.023l3.696 0 0 -2.62 -10.751 0 0 2.62z"/>
  <path class="fil3" d="M33.801 29.518l-0.001 1.927c-0.971,0.058 -1.893,0.049 -2.855,-0.001l0 -1.925c-1.03,0.041 -2.133,0.138 -3.11,0.335 -0.457,0.092 -0.942,0.21 -1.337,0.39 -0.496,0.225 -0.756,0.55 -0.178,0.876 2.031,1.14 10.195,1.114 12.083,0.008 0.54,-0.316 0.358,-0.645 -0.15,-0.877 -1.103,-0.503 -3.244,-0.679 -4.452,-0.733z"/>
  <path class="fil5" d="M30.878 29.326l0.078 0.002 0 -1.748 -3.964 0c0.005,0.003 0.012,0.003 0.014,0.009 0.014,0.033 3.912,0.014 3.928,0.014l-0.001 1.657c-0.015,0.056 -0.013,0.04 -0.055,0.066z"/>
  <path class="fil5" d="M33.801 27.603l3.964 0 -0.014 -2.629c-0.001,-0.003 -0.005,-0.01 -0.008,-0.014l0 2.62 -3.696 0c-0.075,0 -0.183,-0.017 -0.246,0.023z"/>
 </g>
</svg>
